<svg height="24" width="24" xmlns="http://www.w3.org/2000/svg" xmlns:xlink="http://www.w3.org/1999/xlink"><radialGradient id="a" cx=".800586" cy="10.80548" gradientTransform="matrix(.5633095 .90755414 -.95057179 .59001331 9.820407 5.759097)" gradientUnits="userSpaceOnUse" r="16.178832"><stop offset="0" stop-color="#8e8e8e"/><stop offset="1" stop-color="#4c4c4c"/></radialGradient><g transform="matrix(.99695434 0 0 .99695434 .006297 .066799)"><path d="m5.4433594 8.0507812a18.353956 18.353956 0 0 0 -5.4433594.8476563v15.1015625h23.615234a18.353956 18.353956 0 0 0 -18.1718746-15.9492188z" fill="url(#a)" fill-rule="evenodd" stroke-width="1.184126"/><g stroke-linecap="round" stroke-linejoin="round" stroke-width="1.012632"><path d="m.62126139 11.450728s3.76767661-2.7844989 10.01137561-.108628c3.544212 1.518948 7.088425 4.050529 8.607373 7.594741 1.261417 2.943308-2.646525 3.9419-4.050528 2.025264-2.336865-3.190106-2.025265-5.569476-6.5821091-7.594741-3.3683428-1.497041-7.98611151-1.916636-7.98611151-1.916636z" fill="#fffafa" stroke="#fffafa"/><path d="m.5 14.869141v5.341797c1.3814509.854156 2.8638114 2.062289 4.3769531 3.289062h6.7890629c-4.811695-3.585215-5.7824298-6.392668-9.6406254-8.107422-.513278-.228123-1.0247404-.397963-1.5253906-.523437z" fill="#fffafa" stroke="#fffafa"/><path d="m15.657621 1.4516179-7.0672604 12.9176041 13.7732144-5.5467454-3.575807-2.2084361 4.772941-4.3666306-1.611402-1.65375163-4.72727 4.46428873z" fill="#fff" fill-rule="evenodd" stroke="#000"/></g></g></svg>