<svg height="24" width="24" xmlns="http://www.w3.org/2000/svg" xmlns:xlink="http://www.w3.org/1999/xlink"><radialGradient id="a" cx=".800586" cy="10.80548" gradientTransform="matrix(.47571745 .76643363 -.80276223 .49826894 8.696827 7.564439)" gradientUnits="userSpaceOnUse" r="16.178832"><stop offset="0" stop-color="#8e8e8e"/><stop offset="1" stop-color="#4c4c4c"/></radialGradient><clipPath id="b"><path d="m.000001-.000001h23.999998v24h-23.999998z"/></clipPath><g clip-path="url(#b)" transform="matrix(1.0169164 0 0 1.0169164 0 -.405992)"><circle cx="5" cy="25" fill="url(#a)" fill-rule="evenodd" r="15.5" transform="matrix(1.1693548 0 0 1.1693548 -.471774 -2.858871)"/><path d="m.61351145 11.607273s3.72067665-2.7497638 9.88648855-.107273c3.5 1.5 7 4 8.5 7.5 1.245682 2.906592-2.613511 3.892727-4 2-2.307713-3.150311-2-5.5-6.5-7.5-3.3263243-1.478366-7.88648855-1.892727-7.88648855-1.892727z" fill="#fffafa" stroke="#fffafa" stroke-linecap="round" stroke-linejoin="round"/><path d="m-6 15.5s3.9133105-1.816306 8 0c4.5 2 5 5.5 12.5 10 2.876119 1.725671 7 3.5 7 3.5l-.5 3s-7.5-2.5-11.5-5c-4.586252-2.866408-9-8-12.5-8s-7 3.5-7 3.5z" fill="#fffafa" stroke="#fffafa" stroke-linecap="round" stroke-linejoin="round"/><g enable-background="new" stroke="#8b4513" transform="translate(.757229 .755866)"><path d="m3 1 7.5 12.5 6-11h5" fill="none" stroke-linecap="square"/><g fill="#ffdead" stroke-linecap="round" stroke-linejoin="round" stroke-width=".75"><circle cx="3" cy="20" r="1" transform="translate(7.5 -6.5)"/><circle cx="3" cy="20" r="1" transform="translate(.5 -18.5)"/><circle cx="3" cy="20" r="1" transform="translate(13.5 -17.5)"/><circle cx="3" cy="20" r="1" transform="translate(18.5 -17.5)"/></g></g></g></svg>