<svg height="24" width="24" xmlns="http://www.w3.org/2000/svg" xmlns:xlink="http://www.w3.org/1999/xlink"><radialGradient id="a" cx=".800586" cy="10.80548" gradientTransform="matrix(.56569279 .9113939 -.95459355 .59250958 9.861956 5.681923)" gradientUnits="userSpaceOnUse" r="16.178832"><stop offset="0" stop-color="#8e8e8e"/><stop offset="1" stop-color="#4c4c4c"/></radialGradient><g transform="matrix(.99419766 0 0 .99419766 .107441 .031816)"><path d="m5.4667969 7.984375a18.43161 18.43161 0 0 0 -5.4667969.8476562v15.1679688h23.716797a18.43161 18.43161 0 0 0 -18.2500001-16.015625z" fill="url(#a)" fill-rule="evenodd" stroke-width="1.189136"/><path d="m.62388986 11.397634s3.78361714-2.7962796 10.05373214-.109087c3.559208 1.525374 7.118415 4.067665 8.64379 7.626873 1.266754 2.955761-2.657723 3.958578-4.067666 2.033832-2.346751-3.203603-2.033833-5.59304-6.6099566-7.626873-3.3825937-1.503374-8.01989954-1.924745-8.01989954-1.924745z" fill="#fffafa" stroke="#fffafa" stroke-linecap="round" stroke-linejoin="round" stroke-width="1.016916"/><path d="m.40039062 14.806641v5.330078c1.45540318.88486 3.01939168 2.164781 4.62109378 3.46289h6.8300776c-4.9526726-3.649533-5.9070918-6.505799-9.8183589-8.24414-.5506485-.244733-1.09720187-.420915-1.63281248-.548828z" fill="#fffafa" stroke="#fffafa" stroke-linecap="round" stroke-linejoin="round" stroke-width="1.016916"/><g enable-background="new" stroke="#8b4513" transform="matrix(1.0169164 0 0 1.0169164 .770039 .362661)"><path d="m3 1 7.5 12.5 6-11h5" fill="none" stroke-linecap="square"/><g fill="#ffdead" stroke-linecap="round" stroke-linejoin="round" stroke-width=".75"><circle cx="10.5" cy="13.5" r="1"/><circle cx="3.5" cy="1.5" r="1"/><circle cx="16.5" cy="2.5" r="1"/><circle cx="21.5" cy="2.5" r="1"/></g></g></g></svg>