<svg height="24" width="24" xmlns="http://www.w3.org/2000/svg" xmlns:xlink="http://www.w3.org/1999/xlink"><radialGradient id="a" cx=".800586" cy="10.80548" gradientTransform="matrix(.56811833 .91530171 -.95868659 .59505011 9.904242 5.603377)" gradientUnits="userSpaceOnUse" r="16.178832"><stop offset="0" stop-color="#8e8e8e"/><stop offset="1" stop-color="#4c4c4c"/></radialGradient><g transform="matrix(1.0029836 0 0 1.0029836 .110577 -.182183)"><path d="m5.4902344 7.9140625a18.510639 18.510639 0 0 0 -5.4902344.8535156v15.2324219h23.818359a18.510639 18.510639 0 0 0 -18.3281246-16.0859375z" fill="url(#a)" fill-rule="evenodd" stroke-width="1.194235"/><path d="m.62656495 11.343596s3.79984035-2.8082692 10.09684005-.109555c3.574469 1.531915 7.148937 4.085107 8.680852 7.659575 1.272186 2.968435-2.669118 3.975552-4.085106 2.042554-2.356814-3.21734-2.042554-5.617022-6.638299-7.659576-3.3970976-1.50982-8.05428705-1.932998-8.05428705-1.932998z" fill="#fffafa" stroke="#fffafa" stroke-linecap="round" stroke-linejoin="round" stroke-width="1.021277"/><path d="m.40039062 14.767578v5.351563c1.46272428.889088 3.03465438 2.175745 4.64453128 3.480468h6.8593751c-4.9755382-3.665839-5.9327997-6.535237-9.8613282-8.28125-.5540693-.246253-1.10368633-.422273-1.64257818-.550781z" fill="#fffafa" stroke="#fffafa" stroke-linecap="round" stroke-linejoin="round" stroke-width="1.021277"/><g enable-background="new" transform="matrix(1.73173 0 0 -1.73173 -69.15819 -10.745609)"><path d="m44.333333-8.6666667h2.722223s.444444 2.1666667.444444 2.1666667h-2s-1.166667-2.1666667-1.166667-2.1666667" fill="#8b4513"/><path d="m43.166667-10.833333h3.444444s.444445 2.1666663.444445 2.1666663h-2.722223s-1.166666-2.1666663-1.166666-2.1666663" fill="#ffd700"/><g fill="#8b4513"><path d="m49.777778-8.6666667h2.722222s-1 2.1666667-1 2.1666667h-2s.277778-2.1666667.277778-2.1666667"/><path d="m42-13h4.166667s.444444 2.166667.444444 2.166667h-3.444444s-1.166667-2.166667-1.166667-2.166667"/><path d="m46.166667-13h4.166666s-.277777 2.166667-.277777 2.166667h-3.444445s-.444444-2.166667-.444444-2.166667"/><path d="m46.611111-10.833333h3.444445s-.277778 2.1666663-.277778 2.1666663h-2.722222s-.444445-2.1666663-.444445-2.1666663"/></g><g fill="#ffd700"><path d="m50.055556-10.833333h3.444444s-1 2.1666663-1 2.1666663h-2.722222s.277778-2.1666663.277778-2.1666663"/><path d="m47.055556-8.6666667h2.722222s-.277778 2.1666667-.277778 2.1666667h-2s-.444444-2.1666667-.444444-2.1666667"/></g></g></g></svg>