<svg height="24" width="24" xmlns="http://www.w3.org/2000/svg" xmlns:xlink="http://www.w3.org/1999/xlink"><radialGradient id="a" cx=".800586" cy="10.80548" gradientTransform="matrix(.47571745 .76643363 -.80276223 .49826894 8.696827 7.564439)" gradientUnits="userSpaceOnUse" r="16.178832"><stop offset="0" stop-color="#8e8e8e"/><stop offset="1" stop-color="#4c4c4c"/></radialGradient><clipPath id="b"><path d="m.000001.000001h23.999998v23.999998h-23.999998z"/></clipPath><g clip-path="url(#b)" transform="matrix(1.0212767 0 0 1.0212767 0 -.510641)"><circle cx="5" cy="25" fill="url(#a)" fill-rule="evenodd" r="15.5" transform="matrix(1.1693548 0 0 1.1693548 -.471774 -2.858871)"/><g stroke-linejoin="round"><path d="m.61351145 11.607273s3.72067665-2.7497638 9.88648855-.107273c3.5 1.5 7 4 8.5 7.5 1.245682 2.906592-2.613511 3.892727-4 2-2.307713-3.150311-2-5.5-6.5-7.5-3.3263243-1.478366-7.88648855-1.892727-7.88648855-1.892727z" fill="#fffafa" stroke="#fffafa" stroke-linecap="round"/><path d="m-6 15.5s3.9133105-1.816306 8 0c4.5 2 5 5.5 12.5 10 2.876119 1.725671 7 3.5 7 3.5l-.5 3s-7.5-2.5-11.5-5c-4.586252-2.866408-9-8-12.5-8s-7 3.5-7 3.5z" fill="#fffafa" stroke="#fffafa" stroke-linecap="round"/><path d="m13 17.5-7 4 12-1 1-4.5-2-2.5-5.5.5z" fill="#fce94f" stroke="#000" stroke-width=".75"/></g></g></svg>