<svg height="24" width="24" xmlns="http://www.w3.org/2000/svg" xmlns:xlink="http://www.w3.org/1999/xlink"><radialGradient id="a" cx=".800586" cy="10.80548" gradientTransform="matrix(.56811833 .91530171 -.95868659 .59505011 9.904242 5.603377)" gradientUnits="userSpaceOnUse" r="16.178832"><stop offset="0" stop-color="#8e8e8e"/><stop offset="1" stop-color="#4c4c4c"/></radialGradient><g transform="matrix(1.0029836 0 0 1.0029836 .110577 -.182183)"><path d="m5.4902344 7.9140625a18.510639 18.510639 0 0 0 -5.4902344.8535156v15.2324219h23.818359a18.510639 18.510639 0 0 0 -18.3281246-16.0859375z" fill="url(#a)" fill-rule="evenodd" stroke-width="1.194235"/><g stroke-linejoin="round"><path d="m.62656495 11.343596s3.79984035-2.8082692 10.09684005-.109555c3.574469 1.531915 7.148937 4.085107 8.680852 7.659575 1.272186 2.968435-2.669118 3.975552-4.085106 2.042554-2.356814-3.21734-2.042554-5.617022-6.638299-7.659576-3.3970976-1.50982-8.05428705-1.932998-8.05428705-1.932998z" fill="#fffafa" stroke="#fffafa" stroke-linecap="round" stroke-width="1.021277"/><path d="m.40039062 14.767578v5.351563c1.46272428.889088 3.03465438 2.175745 4.64453128 3.480468h6.8593751c-4.9755382-3.665839-5.9327997-6.535237-9.8613282-8.28125-.5540693-.246253-1.10368633-.422273-1.64257818-.550781z" fill="#fffafa" stroke="#fffafa" stroke-linecap="round" stroke-width="1.021277"/><path d="m13.276597 17.361701-7.1489368 4.085107 12.2553208-1.021277 1.021276-4.595745-2.042553-2.553192-5.617022.510639z" fill="#fce94f" stroke="#000" stroke-width=".765958"/></g></g></svg>