<?xml version="1.0" encoding="UTF-8" standalone="no"?>
<!-- Created with Inkscape (http://www.inkscape.org/) -->

<svg
   xmlns:dc="http://purl.org/dc/elements/1.1/"
   xmlns:cc="http://creativecommons.org/ns#"
   xmlns:rdf="http://www.w3.org/1999/02/22-rdf-syntax-ns#"
   xmlns:svg="http://www.w3.org/2000/svg"
   xmlns="http://www.w3.org/2000/svg"
   xmlns:xlink="http://www.w3.org/1999/xlink"
   xmlns:sodipodi="http://sodipodi.sourceforge.net/DTD/sodipodi-0.dtd"
   xmlns:inkscape="http://www.inkscape.org/namespaces/inkscape"
   width="24"
   height="24"
   id="svg2"
   version="1.1"
   inkscape:version="0.48.3.1 r9886"
   sodipodi:docname="mActionSelectRadius.svg">
  <defs
     id="defs4">
    <radialGradient
       r="60.306107"
       fy="-33.92337"
       fx="46.972088"
       cy="-33.92337"
       cx="46.972088"
       gradientTransform="matrix(1.1583414,0,0,1.1010138,78.50486,8.465679)"
       gradientUnits="userSpaceOnUse"
       id="radialGradient4597"
       xlink:href="#linearGradient4471"
       inkscape:collect="always" />
    <radialGradient
       r="60.306107"
       fy="-19.960367"
       fx="65.260735"
       cy="-19.960367"
       cx="65.260735"
       gradientTransform="matrix(1.1373136,0,0,1.1082148,-5.9284,3.6296571)"
       gradientUnits="userSpaceOnUse"
       id="radialGradient4595"
       xlink:href="#linearGradient4463"
       inkscape:collect="always" />
    <radialGradient
       r="60.306107"
       fy="-33.92337"
       fx="46.972088"
       cy="-33.92337"
       cx="46.972088"
       gradientTransform="matrix(1.164251,0,0,1.1066309,-7.7152118,3.6172807)"
       gradientUnits="userSpaceOnUse"
       id="radialGradient4593"
       xlink:href="#linearGradient4224"
       inkscape:collect="always" />
    <radialGradient
       r="20.607111"
       fy="-56.550789"
       fx="-54.952297"
       cy="-56.550789"
       cx="-54.952297"
       gradientTransform="matrix(1,0,0,0.9068628,0,-5.2669822)"
       gradientUnits="userSpaceOnUse"
       id="radialGradient4591"
       xlink:href="#linearGradient4326"
       inkscape:collect="always" />
    <radialGradient
       r="60.306107"
       fy="-33.92337"
       fx="46.972088"
       cy="-33.92337"
       cx="46.972088"
       gradientTransform="matrix(1.1583414,0,0,1.1010138,78.50486,8.465679)"
       gradientUnits="userSpaceOnUse"
       id="radialGradient4558"
       xlink:href="#linearGradient4471"
       inkscape:collect="always" />
    <radialGradient
       r="60.306107"
       fy="-33.92337"
       fx="46.972088"
       cy="-33.92337"
       cx="46.972088"
       gradientTransform="matrix(1.1583414,0,0,-1.1010138,78.50486,39.534321)"
       gradientUnits="userSpaceOnUse"
       id="radialGradient4555"
       xlink:href="#linearGradient4471"
       inkscape:collect="always" />
    <radialGradient
       r="60.306107"
       fy="-33.92337"
       fx="46.972088"
       cy="-33.92337"
       cx="46.972088"
       gradientTransform="matrix(1.1583414,0,0,-1.1010138,78.504862,39.534322)"
       gradientUnits="userSpaceOnUse"
       id="radialGradient4551"
       xlink:href="#linearGradient4224"
       inkscape:collect="always" />
    <radialGradient
       r="60.306107"
       fy="-33.92337"
       fx="46.972088"
       cy="-33.92337"
       cx="46.972088"
       gradientTransform="matrix(1.164251,0,0,1.1066309,-7.7152118,3.6172807)"
       gradientUnits="userSpaceOnUse"
       id="radialGradient4542"
       xlink:href="#linearGradient4471"
       inkscape:collect="always" />
    <radialGradient
       r="60.306107"
       fy="-33.92337"
       fx="46.972088"
       cy="-33.92337"
       cx="46.972088"
       gradientTransform="matrix(1.1583414,0,0,-1.1010138,-59.769574,38.849794)"
       gradientUnits="userSpaceOnUse"
       id="radialGradient4534"
       xlink:href="#linearGradient4224"
       inkscape:collect="always" />
    <radialGradient
       r="60.306107"
       fy="-33.92337"
       fx="46.972088"
       cy="-33.92337"
       cx="46.972088"
       gradientTransform="matrix(1.1583414,0,0,-1.1010138,78.50486,39.534321)"
       gradientUnits="userSpaceOnUse"
       id="radialGradient4531"
       xlink:href="#linearGradient4224"
       inkscape:collect="always" />
    <radialGradient
       r="60.306107"
       fy="-33.92337"
       fx="46.972088"
       cy="-33.92337"
       cx="46.972088"
       gradientTransform="matrix(1.1583414,0,0,1.1010138,78.50486,8.465679)"
       gradientUnits="userSpaceOnUse"
       id="radialGradient4528"
       xlink:href="#linearGradient4224"
       inkscape:collect="always" />
    <radialGradient
       r="60.306107"
       fy="-33.92337"
       fx="46.972088"
       cy="-33.92337"
       cx="46.972088"
       gradientTransform="matrix(1.1583414,0,0,-1.1010138,78.50486,39.534321)"
       gradientUnits="userSpaceOnUse"
       id="radialGradient4525"
       xlink:href="#linearGradient4224"
       inkscape:collect="always" />
    <radialGradient
       gradientUnits="userSpaceOnUse"
       gradientTransform="matrix(1,0,0,0.5964393,0,-19.009954)"
       r="37.546875"
       fy="-47.105568"
       fx="167.20312"
       cy="-47.105568"
       cx="167.20312"
       id="radialGradient4481"
       xlink:href="#linearGradient4471"
       inkscape:collect="always" />
    <radialGradient
       gradientUnits="userSpaceOnUse"
       gradientTransform="matrix(1,0,0,0.5665463,0,-11.737114)"
       r="56.234375"
       fy="-27.078125"
       fx="150.32812"
       cy="-27.078125"
       cx="150.32812"
       id="radialGradient4479"
       xlink:href="#linearGradient4471"
       inkscape:collect="always" />
    <radialGradient
       gradientUnits="userSpaceOnUse"
       gradientTransform="matrix(1,0,0,0.3452269,0,15.683862)"
       r="49.921875"
       fy="23.953125"
       fx="148.67188"
       cy="23.953125"
       cx="148.67188"
       id="radialGradient4477"
       xlink:href="#linearGradient4471"
       inkscape:collect="always" />
    <radialGradient
       r="60.306107"
       fy="-19.960367"
       fx="65.260735"
       cy="-19.960367"
       cx="65.260735"
       gradientTransform="matrix(1.1373136,0,0,1.1082148,-5.9284,3.6296571)"
       gradientUnits="userSpaceOnUse"
       id="radialGradient4461"
       xlink:href="#linearGradient4463"
       inkscape:collect="always" />
    <radialGradient
       r="60.306107"
       fy="-33.92337"
       fx="46.972088"
       cy="-33.92337"
       cx="46.972088"
       gradientTransform="matrix(2.1125941,0,0,-2.0080394,19.606479,22.674501)"
       gradientUnits="userSpaceOnUse"
       id="radialGradient4390"
       xlink:href="#linearGradient4224"
       inkscape:collect="always" />
    <radialGradient
       r="60.306107"
       fy="-33.92337"
       fx="46.972088"
       cy="-33.92337"
       cx="46.972088"
       gradientTransform="matrix(1.164251,0,0,1.1066309,-7.7152118,3.6172807)"
       gradientUnits="userSpaceOnUse"
       id="radialGradient4388"
       xlink:href="#linearGradient4224"
       inkscape:collect="always" />
    <radialGradient
       r="20.607111"
       fy="-56.550789"
       fx="-54.952297"
       cy="-56.550789"
       cx="-54.952297"
       gradientTransform="matrix(1,0,0,0.9068628,0,-5.2669822)"
       gradientUnits="userSpaceOnUse"
       id="radialGradient4337"
       xlink:href="#linearGradient4326"
       inkscape:collect="always" />
    <radialGradient
       r="60.306107"
       fy="-33.92337"
       fx="46.972088"
       cy="-33.92337"
       cx="46.972088"
       gradientTransform="matrix(1.164251,0,0,1.1066309,-7.7152118,3.6172807)"
       gradientUnits="userSpaceOnUse"
       id="radialGradient4305"
       xlink:href="#linearGradient4224"
       inkscape:collect="always" />
    <linearGradient
       id="linearGradient4224">
      <stop
         id="stop4226"
         offset="0"
         style="stop-color:#95d2f8;stop-opacity:1;" />
      <stop
         style="stop-color:#357bb5;stop-opacity:1;"
         offset="0.41"
         id="stop4240" />
      <stop
         id="stop4228"
         offset="1"
         style="stop-color:#13324e;stop-opacity:1;" />
    </linearGradient>
    <linearGradient
       id="linearGradient4326">
      <stop
         id="stop4328"
         offset="0"
         style="stop-color:#000000;stop-opacity:1;" />
      <stop
         style="stop-color:#000000;stop-opacity:1;"
         offset="0.91000003"
         id="stop4334" />
      <stop
         id="stop4330"
         offset="1"
         style="stop-color:#000000;stop-opacity:0;" />
    </linearGradient>
    <linearGradient
       id="linearGradient4463">
      <stop
         style="stop-color:#000000;stop-opacity:0;"
         offset="0"
         id="stop4465" />
      <stop
         id="stop4467"
         offset="0.91000003"
         style="stop-color:#000000;stop-opacity:0;" />
      <stop
         style="stop-color:#000000;stop-opacity:1;"
         offset="1"
         id="stop4469" />
    </linearGradient>
    <linearGradient
       id="linearGradient4471">
      <stop
         id="stop4473"
         offset="0"
         style="stop-color:#ffffff;stop-opacity:1;" />
      <stop
         style="stop-color:#f6f6f6;stop-opacity:1;"
         offset="0.5"
         id="stop4544" />
      <stop
         id="stop4475"
         offset="1"
         style="stop-color:#e1e1e1;stop-opacity:1;" />
    </linearGradient>
  </defs>
  <sodipodi:namedview
     id="base"
     pagecolor="#ffffff"
     bordercolor="#666666"
     borderopacity="1.0"
     inkscape:pageopacity="0.0"
     inkscape:pageshadow="2"
     inkscape:zoom="7.919596"
     inkscape:cx="7.9175282"
     inkscape:cy="-1.1313129"
     inkscape:document-units="px"
     inkscape:current-layer="layer1"
     showgrid="false"
     inkscape:window-width="1366"
     inkscape:window-height="746"
     inkscape:window-x="0"
     inkscape:window-y="1"
     inkscape:window-maximized="1" />
  <metadata
     id="metadata7">
    <rdf:RDF>
      <cc:Work
         rdf:about="">
        <dc:format>image/svg+xml</dc:format>
        <dc:type
           rdf:resource="http://purl.org/dc/dcmitype/StillImage" />
        <dc:title></dc:title>
      </cc:Work>
    </rdf:RDF>
  </metadata>
  <g
     inkscape:label="Layer 1"
     inkscape:groupmode="layer"
     id="layer1"
     transform="translate(0,-1028.3622)">
    <g
       style="display:inline"
       inkscape:label="Layer 1"
       id="layer2"
       transform="matrix(0.47122917,0,0,0.47122917,4.8916873e-7,1028.3622)"
       inkscape:transform-center-x="-10.591297"
       inkscape:transform-center-y="-0.14875441">
      <g
         transform="matrix(0.375,0,0,0.375,-32.250002,28.499999)"
         id="g4585">
        <path
           sodipodi:type="arc"
           style="opacity:0.54828659;color:#000000;fill:url(#radialGradient4591);fill-opacity:1;fill-rule:evenodd;stroke:none;stroke-width:2;marker:none;visibility:visible;display:inline;overflow:visible;enable-background:accumulate"
           id="path4307"
           sodipodi:cx="-54.952297"
           sodipodi:cy="-56.550789"
           sodipodi:rx="20.607111"
           sodipodi:ry="18.687822"
           d="m -34.345186,-56.550789 c 0,10.320999 -9.226118,18.687822 -20.607111,18.687822 -11.380993,0 -20.607111,-8.366823 -20.607111,-18.687822 0,-10.320999 9.226118,-18.687822 20.607111,-18.687822 11.380993,0 20.607111,8.366823 20.607111,18.687822 z"
           transform="matrix(3.105724,0,0,3.4246901,320.66667,181.66893)" />
        <path
           sodipodi:type="arc"
           style="color:#000000;fill:url(#radialGradient4593);fill-opacity:1;fill-rule:evenodd;stroke:none;stroke-width:2;marker:none;visibility:visible;display:inline;overflow:visible;enable-background:accumulate"
           id="path3253"
           sodipodi:cx="64.144684"
           sodipodi:cy="-16.952808"
           sodipodi:rx="60.306107"
           sodipodi:ry="60.306107"
           d="m 124.45079,-16.952808 c 0,33.306143 -26.999963,60.306106 -60.306106,60.306106 -33.306143,0 -60.3061067,-26.999963 -60.3061067,-60.306106 0,-33.306143 26.9999637,-60.306107 60.3061067,-60.306107 33.306143,0 60.306106,26.999964 60.306106,60.306107 z"
           transform="matrix(0.9949241,0,0,0.9949241,86.18091,4.8667588)" />
        <path
           sodipodi:type="arc"
           style="color:#000000;fill:url(#radialGradient4595);fill-opacity:1;fill-rule:evenodd;stroke:none;stroke-width:2;marker:none;visibility:visible;display:inline;overflow:visible;enable-background:accumulate"
           id="path4449"
           sodipodi:cx="64.144684"
           sodipodi:cy="-16.952808"
           sodipodi:rx="60.306107"
           sodipodi:ry="60.306107"
           d="m 124.45079,-16.952808 c 0,33.306143 -26.999963,60.306106 -60.306106,60.306106 -33.306143,0 -60.3061067,-26.999963 -60.3061067,-60.306106 0,-33.306143 26.9999637,-60.306107 60.3061067,-60.306107 33.306143,0 60.306106,26.999964 60.306106,60.306107 z"
           transform="matrix(0.9949241,0,0,0.9949241,86.18091,4.8667588)" />
        <path
           style="color:#000000;fill:url(#radialGradient4597);fill-opacity:1;fill-rule:evenodd;stroke:none;stroke-width:2;marker:none;visibility:visible;display:inline;overflow:visible;enable-background:accumulate"
           d="m 150,-69.5 c -7.16963,0 -14.01235,1.349192 -20.34375,3.75 17.42858,0.305773 27.26443,2.115772 36.1875,7 0.74359,0.407019 1.4842,0.830666 2.21875,1.28125 2.20366,1.351751 4.39535,2.911072 6.65625,4.6875 9.74486,7.656709 10.59772,16.974385 18.875,24.09375 5.03926,4.33432 4.3572,3.968749 6.6875,3.96875 2.55039,0 3.84871,-2.305251 4.46875,-4.8125 C 197.32889,-52.702654 175.62459,-69.500002 150,-69.5 z m -23.0625,10.5625 c -1.21859,0 -2.43298,0.131328 -3.625,0.375 -0.39734,0.08122 -0.79398,0.175827 -1.1875,0.28125 -11.01858,2.951853 -20.44707,15.107323 -23.53125,20.6875 -0.196186,0.354957 -0.418536,0.772164 -0.625,1.15625 -1.6377,3.477358 -2.956391,7.121984 -3.875,10.9375 0.882243,-1.128774 1.740835,-2.188244 2.59375,-3.1875 5.97041,-6.994793 11.43417,-10.781249 19.28125,-10.78125 14.00168,-10e-7 15.78056,6.238078 41.4375,22.96875 12.62732,8.2341636 31.78893,19.5892866 47.59375,21.28125 0.64834,-2.1258123 1.16192,-4.30905454 1.5625,-6.53125 -5.91311,-0.4268904 -11.23985,-2.6809275 -17,-6.5 -0.82288,-0.5455818 -1.65665,-1.1095061 -2.5,-1.71875 -6.74677,-4.873951 -14.24492,-11.76493 -24,-20.3125 -7.4276,-6.508198 -26.10868,-28.656249 -36.125,-28.65625 z M 106.875,6.71875 c -4.43952,0 -7.752288,2.2502384 -8.125,7.3125 6.22372,12.218619 16.67634,21.91297 29.4375,27.15625 -0.16916,-0.236664 -0.32973,-0.485997 -0.5,-0.75 -1.19188,-1.848019 -2.34375,-4.347463 -2.34375,-7.21875 0,-3.340433 2.16025,-4.65625 4.59375,-4.65625 3.24094,0 13.9388,5.09375 31.84375,5.09375 8.95574,0 20.12882,-1.311863 28.3125,-4.46875 3.23222,-3.147086 6.07627,-6.67055 8.5,-10.5 -5.23084,2.120598 -14.9037,5.187499 -27.5,5.1875 -24.33423,0 -46.52601,-10.386733 -52.9375,-13.71875 -1.70068,-0.883835 -6.05994,-3.4375001 -11.28125,-3.4375 z"
           id="path4540"
           inkscape:connector-curvature="0" />
      </g>
    </g>
    <rect
       style="fill:#fce94f;fill-opacity:1;fill-rule:nonzero;stroke:#262626;stroke-width:0.40000001;stroke-linecap:round;stroke-linejoin:miter;stroke-miterlimit:4;stroke-opacity:1;stroke-dasharray:none;stroke-dashoffset:0"
       id="rect2998"
       width="7.6077075"
       height="8.7194881"
       x="7.7950354"
       y="1034.4995" />
    <path
       d="m 22.760675,1044.2696 -12.756464,-6.9791 5.477553,13.6014 2.180887,-3.5312 4.312159,4.7134 1.633122,-1.5913 -4.408599,-4.6683 3.561343,-1.5449 z"
       id="path827"
       inkscape:connector-curvature="0"
       style="fill:#ffffff;fill-rule:evenodd;stroke:#000000;stroke-width:1;stroke-linecap:round;stroke-linejoin:round;stroke-miterlimit:4;stroke-dasharray:none" />
  </g>
</svg>
